<svg width="1607" height="1607" viewBox="0 0 1607 1607" fill="none" xmlns="http://www.w3.org/2000/svg">
<rect width="1607" height="1607" fill="#7A24C3"/>
<path d="M318.339 694.496C318.339 406.847 432.135 318.339 801.97 318.339C1171.81 318.339 1285.6 406.847 1285.6 694.496C1285.6 982.143 1171.81 1070.65 801.97 1070.65C783.656 1070.65 765.971 1070.44 748.899 1069.99L533.286 1285.6V1043.46C373.838 999.14 318.339 895.38 318.339 694.496Z" stroke="white" stroke-width="50" stroke-linecap="round" stroke-linejoin="round"/>
<g clip-path="url(#clip0_202_2)">
<path d="M800.745 538.728C773.572 538.728 746.665 544.08 721.56 554.478C696.455 564.877 673.645 580.119 654.43 599.333C635.216 618.548 619.974 641.358 609.576 666.463C599.177 691.568 593.825 718.475 593.825 745.648C593.911 768.944 597.93 792.058 605.713 814.015C602.41 800.212 600.704 786.076 600.628 771.883C600.63 722.74 620.153 675.61 654.903 640.86C689.653 606.11 736.783 586.587 785.927 586.585C822.674 586.621 858.581 597.581 889.084 618.074L925.995 581.162C890.011 553.698 846.013 538.791 800.745 538.728ZM958.495 600.864C954.154 600.937 949.747 602.628 946.101 605.714L787.577 739.889C780.287 746.061 763.157 764.236 787.542 788.622C811.933 813.012 830.101 795.843 836.275 788.554L970.484 630.097C976.658 622.808 977.239 612.469 970.484 605.714C967.106 602.337 962.836 600.791 958.495 600.864ZM990.389 663.068L955.531 697.926C965.552 720.743 970.867 745.348 971.158 770.267H1005.91C1006.99 762.103 1007.57 753.882 1007.67 745.648C1007.64 717.227 1001.76 689.116 990.389 663.068Z" fill="#F8F8F8"/>
</g>
<defs>
<clipPath id="clip0_202_2">
<rect width="517.301" height="517.301" fill="white" transform="translate(543.319 543.319)"/>
</clipPath>
</defs>
</svg>
