<?xml version="1.0" encoding="iso-8859-1"?>
<!-- Generator: Adobe Illustrator 19.0.0, SVG Export Plug-In . SVG Version: 6.00 Build 0)  -->
<svg version="1.1" id="Layer_1" xmlns="http://www.w3.org/2000/svg" xmlns:xlink="http://www.w3.org/1999/xlink" x="0px" y="0px"
	 viewBox="0 0 512 512" style="enable-background:new 0 0 512 512;" xml:space="preserve">
<g transform="translate(1 1)">
	<path style="fill:#FFE100;" d="M285.225,288.954L225.133,331.8v-42.846h-46.123c-16.939,0-30.677-13.73-30.677-30.669v-134.75
		c0-16.939,13.739-30.669,30.677-30.669h157.056V32.801c0-13.952-11.315-25.267-25.267-25.267H88.276
		C74.315,7.533,63,18.848,63,32.801v444.39c0,13.96,11.315,25.276,25.276,25.276H310.8c13.952,0,25.267-11.315,25.267-25.276
		V288.954H285.225z"/>
	<path style="fill:#FFFFFF;" d="M88.924,477.191V32.801c0-13.952,11.315-25.267,25.276-25.267H88.6
		c-13.96,0-25.276,11.315-25.276,25.267v444.39c0,13.96,11.315,25.276,25.276,25.276h25.6
		C100.24,502.467,88.924,491.152,88.924,477.191"/>
	<path style="fill:#63D3FD;" d="M447,123.535v134.741c0,16.947-13.73,30.677-30.669,30.677H285.225L225.133,331.8v-42.846h-46.131
		c-16.939,0-30.669-13.73-30.669-30.677V123.535c0-16.939,13.73-30.669,30.669-30.669h237.329
		C433.27,92.867,447,106.597,447,123.535"/>
	<path style="fill:#3DB9F9;" d="M416.331,93.046h-25.6c16.939,0,30.669,13.73,30.669,30.669v134.75
		c0,16.939-13.73,30.669-30.669,30.669h25.6c16.939,0,30.669-13.73,30.669-30.669v-134.75C447,106.776,433.27,93.046,416.331,93.046
		"/>
	<path style="fill:#FDCC00;" d="M207.367,468.333H191.7c-5.103,0-9.233-4.13-9.233-9.233v-15.667c0-5.103,4.13-9.233,9.233-9.233
		h15.667c5.103,0,9.233,4.13,9.233,9.233V459.1C216.6,464.203,212.47,468.333,207.367,468.333"/>
	<path d="M207.367,476.867H191.7c-9.796,0-17.766-7.97-17.766-17.766v-15.667c0-9.796,7.97-17.766,17.766-17.766h15.667
		c9.796,0,17.766,7.97,17.766,17.766V459.1C225.133,468.897,217.163,476.867,207.367,476.867z M191.7,442.733
		c-0.392,0-0.7,0.307-0.7,0.7V459.1c0,0.392,0.307,0.7,0.7,0.7h15.667c0.392,0,0.7-0.307,0.7-0.7v-15.667c0-0.392-0.307-0.7-0.7-0.7
		H191.7z"/>
	<path d="M131.267,67.267H63c-4.71,0-8.533-3.823-8.533-8.533S58.29,50.2,63,50.2h68.267c4.71,0,8.533,3.823,8.533,8.533
		S135.977,67.267,131.267,67.267z"/>
	<path d="M336.067,417.133H267.8c-4.719,0-8.533-3.814-8.533-8.533c0-4.719,3.814-8.533,8.533-8.533h68.267
		c4.719,0,8.533,3.814,8.533,8.533C344.6,413.319,340.786,417.133,336.067,417.133z"/>
	<path d="M225.133,340.333c-1.34,0-2.671-0.316-3.908-0.947c-2.842-1.459-4.625-4.395-4.625-7.586v-34.313h-37.598
		c-21.615,0-39.202-17.596-39.202-39.211V123.535c0-21.615,17.587-39.202,39.202-39.202h237.329
		c21.615,0,39.202,17.587,39.202,39.202v134.741c0,21.623-17.587,39.211-39.202,39.211H287.956l-57.873,41.259
		C228.615,339.804,226.883,340.333,225.133,340.333z M179.002,101.4c-12.211,0-22.135,9.933-22.135,22.135v134.741
		c0,12.211,9.933,22.144,22.135,22.144h46.131c4.71,0,8.533,3.814,8.533,8.533v26.274l46.609-33.229
		c1.442-1.033,3.174-1.587,4.949-1.587h131.106c12.211,0,22.135-9.933,22.135-22.144V123.527c0-12.203-9.924-22.135-22.135-22.135
		H179.002V101.4z"/>
	<path d="M301.933,169.667h-85.154c-4.71,0-8.533-3.823-8.533-8.533s3.823-8.533,8.533-8.533h85.154
		c4.719,0,8.533,3.823,8.533,8.533S306.652,169.667,301.933,169.667z"/>
	<path d="M216.779,220.867c-4.71,0-8.533-3.814-8.533-8.525s3.814-8.533,8.525-8.542l161.954-0.154h0.009
		c4.71,0,8.525,3.814,8.533,8.525c0.009,4.71-3.806,8.533-8.525,8.542L216.779,220.867L216.779,220.867z"/>
	<path d="M310.8,511H88.276c-18.645,0-33.809-15.164-33.809-33.809V32.801C54.467,14.164,69.631-1,88.276-1H310.8
		C329.436-1,344.6,14.164,344.6,32.801V101.4H179.011c-12.211,0-22.144,9.933-22.144,22.135v134.75
		c0,12.203,9.933,22.135,22.144,22.135h54.656v34.808l48.828-34.808H344.6v196.77C344.6,495.836,329.436,511,310.8,511z
		 M88.276,16.067c-9.233,0-16.742,7.509-16.742,16.734v444.39c0,9.233,7.509,16.742,16.742,16.742H310.8
		c9.224,0,16.734-7.509,16.734-16.742V297.488h-39.578l-71.364,50.876v-50.876h-37.589c-21.623,0-39.211-17.587-39.211-39.202
		v-134.75c0-21.615,17.596-39.202,39.211-39.202h148.531V32.801c0-9.224-7.509-16.734-16.734-16.734H88.276z"/>
</g>
<g>
</g>
<g>
</g>
<g>
</g>
<g>
</g>
<g>
</g>
<g>
</g>
<g>
</g>
<g>
</g>
<g>
</g>
<g>
</g>
<g>
</g>
<g>
</g>
<g>
</g>
<g>
</g>
<g>
</g>
</svg>
