<?xml version="1.0" standalone="no"?>
<!DOCTYPE svg PUBLIC "-//W3C//DTD SVG 20010904//EN"
 "http://www.w3.org/TR/2001/REC-SVG-20010904/DTD/svg10.dtd">
<svg version="1.0" xmlns="http://www.w3.org/2000/svg"
 width="700.000000pt" height="700.000000pt" viewBox="0 0 700.000000 700.000000"
 preserveAspectRatio="xMidYMid meet">
<metadata>
Created by potrace 1.14, written by Peter Selinger 2001-2017
</metadata>
<g transform="translate(0.000000,700.000000) scale(0.100000,-0.100000)"
fill="#000000" stroke="none">
<path d="M0 3500 l0 -3500 3500 0 3500 0 0 3500 0 3500 -3500 0 -3500 0 0
-3500z m3817 2440 c692 -29 1124 -134 1459 -356 109 -72 280 -240 352 -346
146 -214 237 -481 284 -828 17 -129 17 -741 0 -870 -21 -153 -59 -330 -97
-444 -122 -375 -362 -655 -711 -829 -341 -170 -757 -245 -1464 -263 l-245 -6
-445 -443 c-421 -419 -448 -444 -505 -465 -79 -29 -198 -25 -263 9 -66 34
-128 96 -159 160 l-28 56 -3 450 -3 451 -91 44 c-474 231 -736 630 -818 1245
-35 264 -33 702 5 974 102 727 490 1167 1189 1346 393 101 929 141 1543 115z"/>
<path d="M3070 5269 c-402 -24 -678 -82 -890 -186 -99 -49 -126 -68 -195 -137
-90 -91 -145 -185 -188 -321 -105 -338 -102 -1002 7 -1323 69 -202 184 -339
361 -429 55 -28 145 -65 200 -83 120 -38 150 -56 209 -121 66 -73 78 -117 83
-302 l5 -159 212 210 c271 269 232 252 589 252 652 0 1065 59 1332 190 215
105 330 244 399 481 59 205 85 522 67 814 -41 681 -232 926 -817 1049 -315 66
-899 93 -1374 65z m691 -660 c82 -27 201 -86 240 -118 l30 -26 -78 -77 -78
-77 -90 45 c-124 61 -221 84 -359 84 -253 0 -475 -104 -629 -295 -66 -82 -102
-149 -139 -258 -27 -80 -32 -110 -36 -227 l-5 -135 -13 60 c-16 73 -18 240 -3
321 49 277 230 523 479 649 133 68 165 73 401 74 193 1 222 -1 280 -20z m472
-261 c14 -18 18 -34 13 -52 -8 -33 -600 -733 -647 -764 -43 -30 -95 -25 -145
13 -49 38 -74 82 -74 133 0 57 4 61 420 412 320 270 347 291 379 288 23 -2 40
-12 54 -30z m142 -445 c16 -90 19 -180 9 -232 l-6 -31 -74 0 -74 0 0 34 c0 50
-25 174 -48 231 l-19 50 76 78 76 77 22 -60 c13 -34 30 -99 38 -147z"/>
</g>
</svg>
