<svg width="424" height="890" viewBox="0 0 424 890" fill="none" xmlns="http://www.w3.org/2000/svg">
<g filter="url(#filter0_d_110_119)">
<path d="M60.4 878.5C33.4 878.5 11.5 856.6 11.5 829.6V60.4C11.5 33.4 33.4 11.5 60.4 11.5H363.1C390.1 11.5 412 33.4 412 60.4V829.6C412 856.6 390.1 878.5 363.1 878.5H60.4Z" fill="#383838"/>
<path d="M363.1 12C389.8 12 411.5 33.7 411.5 60.4V829.6C411.5 856.3 389.8 878 363.1 878H60.4C33.7 878 12 856.3 12 829.6V60.4C12 33.7 33.7 12 60.4 12H363.1ZM363.1 11H60.4C33.1 11 11 33.1 11 60.4V829.6C11 856.9 33.1 879 60.4 879H363.1C390.4 879 412.5 856.9 412.5 829.6V60.4C412.6 33.1 390.4 11 363.1 11Z" fill="#383838"/>
<path d="M370 866.6H53.5C35.8 866.6 21.5 852.3 21.5 834.6V52.3C21.5 34.6 35.8 20.3 53.5 20.3H370C387.7 20.3 402 34.6 402 52.3V834.7C402 852.3 387.7 866.6 370 866.6Z" fill="url(#paint0_linear_110_119)"/>
<path d="M293.6 11L291.4 20.3L290.3 24.9C290.3 37.7 277.1 48.1 260.9 48.1H162.7C146.4 48.1 133.3 37.7 133.3 24.9L132.2 20.3L130 11H293.6Z" fill="#383838"/>
<path d="M71.0545 29.2511V41.6069H69.5583V30.8197H69.4859L66.4693 32.8227V31.3023L69.5583 29.2511H71.0545ZM78.6382 41.7759C77.7292 41.7759 76.9549 41.5285 76.3154 41.0338C75.6759 40.535 75.1872 39.8131 74.8494 38.8679C74.5115 37.9187 74.3426 36.7724 74.3426 35.429C74.3426 34.0937 74.5115 32.9534 74.8494 32.0082C75.1912 31.059 75.6819 30.335 76.3214 29.8363C76.965 29.3335 77.7372 29.0822 78.6382 29.0822C79.5391 29.0822 80.3093 29.3335 80.9489 29.8363C81.5924 30.335 82.0831 31.059 82.4209 32.0082C82.7628 32.9534 82.9338 34.0937 82.9338 35.429C82.9338 36.7724 82.7648 37.9187 82.427 38.8679C82.0891 39.8131 81.6004 40.535 80.9609 41.0338C80.3214 41.5285 79.5472 41.7759 78.6382 41.7759ZM78.6382 40.4486C79.5391 40.4486 80.239 40.0142 80.7377 39.1454C81.2364 38.2766 81.4858 37.0378 81.4858 35.429C81.4858 34.3591 81.3712 33.4481 81.1419 32.696C80.9167 31.9439 80.5909 31.3707 80.1645 30.9766C79.7422 30.5824 79.2334 30.3853 78.6382 30.3853C77.7453 30.3853 77.0474 30.8257 76.5447 31.7066C76.0419 32.5834 75.7905 33.8242 75.7905 35.429C75.7905 36.4989 75.9031 37.4079 76.1284 38.156C76.3536 38.9041 76.6774 39.4732 77.0997 39.8634C77.5261 40.2535 78.0389 40.4486 78.6382 40.4486ZM86.2882 40.0263C85.9905 40.0263 85.7351 39.9197 85.522 39.7065C85.3088 39.4933 85.2022 39.2379 85.2022 38.9403C85.2022 38.6427 85.3088 38.3873 85.522 38.1741C85.7351 37.9609 85.9905 37.8543 86.2882 37.8543C86.5858 37.8543 86.8412 37.9609 87.0544 38.1741C87.2676 38.3873 87.3741 38.6427 87.3741 38.9403C87.3741 39.1374 87.3239 39.3184 87.2233 39.4833C87.1268 39.6482 86.9961 39.7809 86.8312 39.8815C86.6703 39.978 86.4893 40.0263 86.2882 40.0263ZM86.2882 33.7759C85.9905 33.7759 85.7351 33.6693 85.522 33.4562C85.3088 33.243 85.2022 32.9876 85.2022 32.69C85.2022 32.3923 85.3088 32.1369 85.522 31.9238C85.7351 31.7106 85.9905 31.604 86.2882 31.604C86.5858 31.604 86.8412 31.7106 87.0544 31.9238C87.2676 32.1369 87.3741 32.3923 87.3741 32.69C87.3741 32.887 87.3239 33.068 87.2233 33.2329C87.1268 33.3979 86.9961 33.5306 86.8312 33.6311C86.6703 33.7277 86.4893 33.7759 86.2882 33.7759ZM93.9352 41.7759C93.0262 41.7759 92.2519 41.5285 91.6124 41.0338C90.9729 40.535 90.4842 39.8131 90.1464 38.8679C89.8085 37.9187 89.6396 36.7724 89.6396 35.429C89.6396 34.0937 89.8085 32.9534 90.1464 32.0082C90.4882 31.059 90.9789 30.335 91.6185 29.8363C92.262 29.3335 93.0342 29.0822 93.9352 29.0822C94.8361 29.0822 95.6064 29.3335 96.2459 29.8363C96.8894 30.335 97.3801 31.059 97.7179 32.0082C98.0598 32.9534 98.2308 34.0937 98.2308 35.429C98.2308 36.7724 98.0618 37.9187 97.724 38.8679C97.3861 39.8131 96.8974 40.535 96.2579 41.0338C95.6184 41.5285 94.8442 41.7759 93.9352 41.7759ZM93.9352 40.4486C94.8361 40.4486 95.536 40.0142 96.0347 39.1454C96.5334 38.2766 96.7828 37.0378 96.7828 35.429C96.7828 34.3591 96.6682 33.4481 96.4389 32.696C96.2137 31.9439 95.8879 31.3707 95.4616 30.9766C95.0392 30.5824 94.5304 30.3853 93.9352 30.3853C93.0423 30.3853 92.3444 30.8257 91.8417 31.7066C91.3389 32.5834 91.0875 33.8242 91.0875 35.429C91.0875 36.4989 91.2002 37.4079 91.4254 38.156C91.6506 38.9041 91.9744 39.4732 92.3967 39.8634C92.8231 40.2535 93.3359 40.4486 93.9352 40.4486ZM104.553 41.7759C103.644 41.7759 102.87 41.5285 102.231 41.0338C101.591 40.535 101.103 39.8131 100.765 38.8679C100.427 37.9187 100.258 36.7724 100.258 35.429C100.258 34.0937 100.427 32.9534 100.765 32.0082C101.107 31.059 101.597 30.335 102.237 29.8363C102.88 29.3335 103.653 29.0822 104.553 29.0822C105.454 29.0822 106.225 29.3335 106.864 29.8363C107.508 30.335 107.998 31.059 108.336 32.0082C108.678 32.9534 108.849 34.0937 108.849 35.429C108.849 36.7724 108.68 37.9187 108.342 38.8679C108.004 39.8131 107.516 40.535 106.876 41.0338C106.237 41.5285 105.462 41.7759 104.553 41.7759ZM104.553 40.4486C105.454 40.4486 106.154 40.0142 106.653 39.1454C107.152 38.2766 107.401 37.0378 107.401 35.429C107.401 34.3591 107.286 33.4481 107.057 32.696C106.832 31.9439 106.506 31.3707 106.08 30.9766C105.658 30.5824 105.149 30.3853 104.553 30.3853C103.661 30.3853 102.963 30.8257 102.46 31.7066C101.957 32.5834 101.706 33.8242 101.706 35.429C101.706 36.4989 101.818 37.4079 102.044 38.156C102.269 38.9041 102.593 39.4732 103.015 39.8634C103.441 40.2535 103.954 40.4486 104.553 40.4486Z" fill="white"/>
</g>
<path d="M202.1 35.8001C206.85 35.8001 210.7 31.9497 210.7 27.2001C210.7 22.4504 206.85 18.6001 202.1 18.6001C197.35 18.6001 193.5 22.4504 193.5 27.2001C193.5 31.9497 197.35 35.8001 202.1 35.8001Z" fill="url(#paint1_linear_110_119)"/>
<path d="M208.5 32.4001C205.6 35.9001 200.5 36.4001 197 33.6001C193.5 30.7001 193 25.6001 195.9 22.1001C198.8 18.6001 203.9 18.1001 207.4 20.9001C210.9 23.7001 211.3 28.9001 208.5 32.4001Z" fill="url(#paint2_linear_110_119)"/>
<path d="M202.341 34.1891C205.981 34.0044 208.774 30.7249 208.578 26.8639C208.382 23.0029 205.272 20.0226 201.632 20.2073C197.992 20.3919 195.199 23.6714 195.395 27.5324C195.591 31.3934 198.701 34.3737 202.341 34.1891Z" fill="#1B1464"/>
<path d="M205.5 22C206.3 23.6 205.1 25.9 202.8 27.1C200.4 28.3 197.9 28 197 26.4C196.2 24.8 197.4 22.5 199.7 21.3C202 20.1 204.6 20.4 205.5 22Z" fill="url(#paint3_linear_110_119)"/>
<path d="M226.3 32.2002C229.061 32.2002 231.3 29.9616 231.3 27.2002C231.3 24.4388 229.061 22.2002 226.3 22.2002C223.539 22.2002 221.3 24.4388 221.3 27.2002C221.3 29.9616 223.539 32.2002 226.3 32.2002Z" fill="url(#paint4_linear_110_119)"/>
<path d="M230.1 30.3C228.4 32.4 225.4 32.7 223.3 31C221.2 29.3 220.9 26.3 222.6 24.2C224.3 22.1 227.3 21.8 229.4 23.5C231.4 25.2 231.7 28.2 230.1 30.3Z" fill="url(#paint5_linear_110_119)"/>
<path d="M226.391 31.2951C228.542 31.186 230.193 29.2643 230.079 27.0029C229.964 24.7414 228.127 22.9966 225.976 23.1057C223.825 23.2148 222.174 25.1365 222.289 27.3979C222.403 29.6593 224.24 31.4041 226.391 31.2951Z" fill="#1B1464"/>
<path d="M228.3 24.2C228.8 25.1 228.1 26.5 226.7 27.2C225.3 27.9 223.8 27.7 223.3 26.8C222.8 25.9 223.5 24.5 224.9 23.8C226.3 23 227.8 23.2 228.3 24.2Z" fill="url(#paint6_linear_110_119)"/>
<path d="M317.7 30.8999C319.1 30.8999 320 32.2999 319.3 33.3999L319.1 33.6999L312.1 44.7999C311.4 45.8999 309.6 45.8999 308.9 44.7999L302 33.4999C301.3 32.3999 302.2 30.9999 303.6 30.9999C311.1 30.8999 315.4 30.8999 317.7 30.8999Z" fill="white"/>
<path d="M319.6 32.9C319.3 33.4 318.7 33.8 318 33.8H303.2C302.5 33.8 301.9 33.5 301.6 32.9C301 31.9 301.6 30.7 302.7 30.4C304.8 29.9 307.6 29.5 311 29.5C314 29.5 316.5 29.9 318.5 30.4C319.7 30.7 320.3 31.9 319.6 32.9Z" fill="#AFAAAA"/>
<path d="M366 31.5H357V46.5H366V31.5Z" fill="#AFAAAA"/>
<path d="M363.5 29.5H359.5V31.5H363.5V29.5Z" fill="#AFAAAA"/>
<path d="M366 36H357V46.5H366V36Z" fill="white"/>
<path d="M346.2 47.3H324.5L346.2 31.5" fill="white"/>
<path d="M367.5 854.3H347.7C344.7 854.3 342.3 851.9 342.3 848.9V836.7C342.3 833.7 344.7 831.3 347.7 831.3H367.5C370.5 831.3 372.9 833.7 372.9 836.7V848.9C372.8 851.9 370.4 854.3 367.5 854.3Z" fill="#AFAAAA"/>
<path d="M364.3 835.2H350.8C349.5 835.2 348.5 834.2 348.5 832.9V830.4C348.5 829.1 349.5 828.1 350.8 828.1H364.3C365.6 828.1 366.6 829.1 366.6 830.4V832.9C366.6 834.2 365.6 835.2 364.3 835.2Z" fill="#AFAAAA"/>
<path d="M357.7 847.2C360.185 847.2 362.2 845.364 362.2 843.1C362.2 840.836 360.185 839 357.7 839C355.215 839 353.2 840.836 353.2 843.1C353.2 845.364 355.215 847.2 357.7 847.2Z" fill="#AFAAAA" stroke="black" stroke-width="2" stroke-miterlimit="10"/>
<path d="M220.4 851.2H201.7C199.8 851.2 198.2 849.6 198.2 847.7V834.5C198.2 832.6 199.8 831 201.7 831H220.4C222.3 831 223.9 832.6 223.9 834.5V847.7C223.9 849.6 222.3 851.2 220.4 851.2Z" stroke="#AFAAAA" stroke-width="2" stroke-miterlimit="10"/>
<path d="M211.3 844.1C212.791 844.1 214 842.891 214 841.4C214 839.909 212.791 838.7 211.3 838.7C209.809 838.7 208.6 839.909 208.6 841.4C208.6 842.891 209.809 844.1 211.3 844.1Z" fill="#AFAAAA" stroke="#AFAAAA" stroke-width="2" stroke-miterlimit="10"/>
<path d="M204.4 822.3C207.1 820 211.1 819.6 214.1 821.5C217.3 823.4 218.8 827.4 217.6 831" stroke="#AFAAAA" stroke-width="2" stroke-miterlimit="10" stroke-linecap="round"/>
<path d="M45.8 834.2C46.8 835.8 51.0001 841.9 57.4001 841.9C63.8001 841.9 68.0001 835.8 69.0001 834.2" stroke="#AFAAAA" stroke-width="2" stroke-miterlimit="10"/>
<path d="M57.3 841.9V855.8" stroke="#AFAAAA" stroke-width="2" stroke-miterlimit="10"/>
<path d="M58.4001 838.2H56.2001C55.1001 838.2 54.2001 837.3 54.2001 836.2V823.2C54.2001 822.1 55.1001 821.2 56.2001 821.2H58.4001C59.5001 821.2 60.4001 822.1 60.4001 823.2V836.2C60.4001 837.3 59.5001 838.2 58.4001 838.2Z" fill="#AFAAAA" stroke="#AFAAAA" stroke-width="2" stroke-miterlimit="10"/>
<path d="M106.687 271.672H124.447V274.744H106.687V271.672ZM107.071 289H103.519V255.4H126.559V258.472H107.071V289ZM147.935 289V283.432L147.791 282.52V273.208C147.791 271.064 147.183 269.416 145.967 268.264C144.783 267.112 143.007 266.536 140.639 266.536C139.007 266.536 137.455 266.808 135.983 267.352C134.511 267.896 133.263 268.616 132.239 269.512L130.703 266.968C131.983 265.88 133.519 265.048 135.311 264.472C137.103 263.864 138.991 263.56 140.975 263.56C144.239 263.56 146.751 264.376 148.511 266.008C150.303 267.608 151.199 270.056 151.199 273.352V289H147.935ZM139.247 289.24C137.359 289.24 135.711 288.936 134.303 288.328C132.927 287.688 131.871 286.824 131.135 285.736C130.399 284.616 130.031 283.336 130.031 281.896C130.031 280.584 130.335 279.4 130.943 278.344C131.583 277.256 132.607 276.392 134.015 275.752C135.455 275.08 137.375 274.744 139.775 274.744H148.463V277.288H139.871C137.439 277.288 135.743 277.72 134.783 278.584C133.855 279.448 133.391 280.52 133.391 281.8C133.391 283.24 133.951 284.392 135.071 285.256C136.191 286.12 137.759 286.552 139.775 286.552C141.695 286.552 143.343 286.12 144.719 285.256C146.127 284.36 147.151 283.08 147.791 281.416L148.559 283.768C147.919 285.432 146.799 286.76 145.199 287.752C143.631 288.744 141.647 289.24 139.247 289.24ZM167.223 289.24C165.143 289.24 163.175 288.952 161.319 288.376C159.463 287.768 158.007 287.016 156.951 286.12L158.487 283.432C159.511 284.2 160.823 284.872 162.423 285.448C164.023 285.992 165.703 286.264 167.463 286.264C169.863 286.264 171.591 285.896 172.647 285.16C173.703 284.392 174.231 283.384 174.231 282.136C174.231 281.208 173.927 280.488 173.319 279.976C172.743 279.432 171.975 279.032 171.015 278.776C170.055 278.488 168.983 278.248 167.799 278.056C166.615 277.864 165.431 277.64 164.247 277.384C163.095 277.128 162.039 276.76 161.079 276.28C160.119 275.768 159.335 275.08 158.727 274.216C158.151 273.352 157.863 272.2 157.863 270.76C157.863 269.384 158.247 268.152 159.015 267.064C159.783 265.976 160.903 265.128 162.375 264.52C163.879 263.88 165.703 263.56 167.847 263.56C169.479 263.56 171.111 263.784 172.743 264.232C174.375 264.648 175.719 265.208 176.775 265.912L175.287 268.648C174.167 267.88 172.967 267.336 171.687 267.016C170.407 266.664 169.127 266.488 167.847 266.488C165.575 266.488 163.895 266.888 162.807 267.688C161.751 268.456 161.223 269.448 161.223 270.664C161.223 271.624 161.511 272.376 162.087 272.92C162.695 273.464 163.479 273.896 164.439 274.216C165.431 274.504 166.503 274.744 167.655 274.936C168.839 275.128 170.007 275.368 171.159 275.656C172.343 275.912 173.415 276.28 174.375 276.76C175.367 277.208 176.151 277.864 176.727 278.728C177.335 279.56 177.639 280.664 177.639 282.04C177.639 283.512 177.223 284.792 176.391 285.88C175.591 286.936 174.407 287.768 172.839 288.376C171.303 288.952 169.431 289.24 167.223 289.24ZM191.861 289.24C189.493 289.24 187.669 288.6 186.389 287.32C185.109 286.04 184.469 284.232 184.469 281.896V258.232H187.877V281.704C187.877 283.176 188.245 284.312 188.981 285.112C189.749 285.912 190.837 286.312 192.245 286.312C193.749 286.312 194.997 285.88 195.989 285.016L197.189 287.464C196.517 288.072 195.701 288.52 194.741 288.808C193.813 289.096 192.853 289.24 191.861 289.24ZM179.957 266.632V263.8H195.557V266.632H179.957ZM231.267 289.288C228.739 289.288 226.403 288.872 224.259 288.04C222.115 287.176 220.259 285.976 218.691 284.44C217.123 282.904 215.891 281.096 214.995 279.016C214.131 276.936 213.699 274.664 213.699 272.2C213.699 269.736 214.131 267.464 214.995 265.384C215.891 263.304 217.123 261.496 218.691 259.96C220.291 258.424 222.163 257.24 224.307 256.408C226.451 255.544 228.787 255.112 231.315 255.112C233.747 255.112 236.035 255.528 238.179 256.36C240.323 257.16 242.131 258.376 243.603 260.008L241.347 262.264C239.971 260.856 238.451 259.848 236.787 259.24C235.123 258.6 233.331 258.28 231.411 258.28C229.395 258.28 227.523 258.632 225.795 259.336C224.067 260.008 222.563 260.984 221.283 262.264C220.003 263.512 218.995 264.984 218.259 266.68C217.555 268.344 217.203 270.184 217.203 272.2C217.203 274.216 217.555 276.072 218.259 277.768C218.995 279.432 220.003 280.904 221.283 282.184C222.563 283.432 224.067 284.408 225.795 285.112C227.523 285.784 229.395 286.12 231.411 286.12C233.331 286.12 235.123 285.8 236.787 285.16C238.451 284.52 239.971 283.496 241.347 282.088L243.603 284.344C242.131 285.976 240.323 287.208 238.179 288.04C236.035 288.872 233.731 289.288 231.267 289.288ZM263.319 263.56C265.367 263.56 267.159 263.96 268.695 264.76C270.263 265.528 271.479 266.712 272.343 268.312C273.239 269.912 273.687 271.928 273.687 274.36V289H270.279V274.696C270.279 272.04 269.607 270.04 268.263 268.696C266.951 267.32 265.095 266.632 262.695 266.632C260.903 266.632 259.335 267 257.991 267.736C256.679 268.44 255.655 269.48 254.919 270.856C254.215 272.2 253.863 273.832 253.863 275.752V289H250.455V253.384H253.863V270.712L253.191 269.416C253.991 267.592 255.271 266.168 257.031 265.144C258.791 264.088 260.887 263.56 263.319 263.56ZM298.685 289V283.432L298.541 282.52V273.208C298.541 271.064 297.933 269.416 296.717 268.264C295.533 267.112 293.757 266.536 291.389 266.536C289.757 266.536 288.205 266.808 286.733 267.352C285.261 267.896 284.013 268.616 282.989 269.512L281.453 266.968C282.733 265.88 284.269 265.048 286.061 264.472C287.853 263.864 289.741 263.56 291.725 263.56C294.989 263.56 297.501 264.376 299.261 266.008C301.053 267.608 301.949 270.056 301.949 273.352V289H298.685ZM289.997 289.24C288.109 289.24 286.461 288.936 285.053 288.328C283.677 287.688 282.621 286.824 281.885 285.736C281.149 284.616 280.781 283.336 280.781 281.896C280.781 280.584 281.085 279.4 281.693 278.344C282.333 277.256 283.357 276.392 284.765 275.752C286.205 275.08 288.125 274.744 290.525 274.744H299.213V277.288H290.621C288.189 277.288 286.493 277.72 285.533 278.584C284.605 279.448 284.141 280.52 284.141 281.8C284.141 283.24 284.701 284.392 285.821 285.256C286.941 286.12 288.509 286.552 290.525 286.552C292.445 286.552 294.093 286.12 295.469 285.256C296.877 284.36 297.901 283.08 298.541 281.416L299.309 283.768C298.669 285.432 297.549 286.76 295.949 287.752C294.381 288.744 292.397 289.24 289.997 289.24ZM319.173 289.24C316.805 289.24 314.981 288.6 313.701 287.32C312.421 286.04 311.781 284.232 311.781 281.896V258.232H315.189V281.704C315.189 283.176 315.557 284.312 316.293 285.112C317.061 285.912 318.149 286.312 319.557 286.312C321.061 286.312 322.309 285.88 323.301 285.016L324.501 287.464C323.829 288.072 323.013 288.52 322.053 288.808C321.125 289.096 320.165 289.24 319.173 289.24ZM307.269 266.632V263.8H322.869V266.632H307.269Z" fill="white"/>
<defs>
<filter id="filter0_d_110_119" x="0" y="0" width="423.5" height="890" filterUnits="userSpaceOnUse" color-interpolation-filters="sRGB">
<feFlood flood-opacity="0" result="BackgroundImageFix"/>
<feColorMatrix in="SourceAlpha" type="matrix" values="0 0 0 0 0 0 0 0 0 0 0 0 0 0 0 0 0 0 127 0" result="hardAlpha"/>
<feOffset/>
<feGaussianBlur stdDeviation="5.5"/>
<feComposite in2="hardAlpha" operator="out"/>
<feColorMatrix type="matrix" values="0 0 0 0 0 0 0 0 0 0 0 0 0 0 0 0 0 0 0.49 0"/>
<feBlend mode="normal" in2="BackgroundImageFix" result="effect1_dropShadow_110_119"/>
<feBlend mode="normal" in="SourceGraphic" in2="effect1_dropShadow_110_119" result="shape"/>
</filter>
<linearGradient id="paint0_linear_110_119" x1="211.783" y1="866.644" x2="211.783" y2="20.267" gradientUnits="userSpaceOnUse">
<stop stop-color="#0074FF"/>
<stop offset="1" stop-color="#841EBE"/>
</linearGradient>
<linearGradient id="paint1_linear_110_119" x1="206.381" y1="19.7393" x2="197.82" y2="34.5664" gradientUnits="userSpaceOnUse">
<stop offset="0.0371287" stop-color="#777777"/>
<stop offset="0.1009" stop-color="#7E7E7E"/>
<stop offset="0.1915" stop-color="#909090"/>
<stop offset="0.2981" stop-color="#AFAFAF"/>
<stop offset="0.4159" stop-color="#D9D9D9"/>
<stop offset="0.5074" stop-color="white"/>
<stop offset="0.5727" stop-color="#CCCCCC" stop-opacity="0.9735"/>
<stop offset="0.6599" stop-color="#8F8F8F" stop-opacity="0.9381"/>
<stop offset="0.7436" stop-color="#5C5C5C" stop-opacity="0.9041"/>
<stop offset="0.8217" stop-color="#343434" stop-opacity="0.8724"/>
<stop offset="0.8928" stop-color="#171717" stop-opacity="0.8435"/>
<stop offset="0.9545" stop-color="#060606" stop-opacity="0.8185"/>
<stop offset="1" stop-opacity="0.8"/>
</linearGradient>
<linearGradient id="paint2_linear_110_119" x1="209.779" y1="24.2989" x2="194.42" y2="30.0911" gradientUnits="userSpaceOnUse">
<stop offset="0.0371287" stop-color="#777777"/>
<stop offset="0.1009" stop-color="#7E7E7E"/>
<stop offset="0.1915" stop-color="#909090"/>
<stop offset="0.2981" stop-color="#AFAFAF"/>
<stop offset="0.4159" stop-color="#D9D9D9"/>
<stop offset="0.5074" stop-color="white"/>
<stop offset="0.5508" stop-color="#DEDEDE" stop-opacity="0.956"/>
<stop offset="0.6452" stop-color="#9D9D9D" stop-opacity="0.8602"/>
<stop offset="0.735" stop-color="#666666" stop-opacity="0.769"/>
<stop offset="0.8179" stop-color="#3C3C3C" stop-opacity="0.6849"/>
<stop offset="0.8922" stop-color="#1D1D1D" stop-opacity="0.6094"/>
<stop offset="0.9554" stop-color="#0B0B0B" stop-opacity="0.5452"/>
<stop offset="1" stop-opacity="0.6"/>
</linearGradient>
<linearGradient id="paint3_linear_110_119" x1="196.91" y1="26.4813" x2="205.437" y2="22.0354" gradientUnits="userSpaceOnUse">
<stop stop-color="white" stop-opacity="0.9"/>
<stop offset="0.0618812" stop-color="#CCE0F4"/>
<stop offset="0.1366" stop-color="#C3DAF0" stop-opacity="0.8997"/>
<stop offset="0.2609" stop-color="#A9C9E4" stop-opacity="0.7329"/>
<stop offset="0.4194" stop-color="#80AED1" stop-opacity="0.5201"/>
<stop offset="0.6061" stop-color="#4689B7" stop-opacity="0.2696"/>
</linearGradient>
<linearGradient id="paint4_linear_110_119" x1="228.824" y1="22.8353" x2="223.779" y2="31.5747" gradientUnits="userSpaceOnUse">
<stop offset="0.0371287" stop-color="#777777"/>
<stop offset="0.1009" stop-color="#7E7E7E"/>
<stop offset="0.1915" stop-color="#909090"/>
<stop offset="0.2981" stop-color="#AFAFAF"/>
<stop offset="0.4159" stop-color="#D9D9D9"/>
<stop offset="0.5074" stop-color="white"/>
<stop offset="0.5727" stop-color="#CCCCCC" stop-opacity="0.9735"/>
<stop offset="0.6599" stop-color="#8F8F8F" stop-opacity="0.9381"/>
<stop offset="0.7436" stop-color="#5C5C5C" stop-opacity="0.9041"/>
<stop offset="0.8217" stop-color="#343434" stop-opacity="0.8724"/>
<stop offset="0.8928" stop-color="#171717" stop-opacity="0.8435"/>
<stop offset="0.9545" stop-color="#060606" stop-opacity="0.8185"/>
<stop offset="1" stop-opacity="0.8"/>
</linearGradient>
<linearGradient id="paint5_linear_110_119" x1="230.819" y1="25.5377" x2="221.766" y2="28.9518" gradientUnits="userSpaceOnUse">
<stop offset="0.0371287" stop-color="#777777"/>
<stop offset="0.1009" stop-color="#7E7E7E"/>
<stop offset="0.1915" stop-color="#909090"/>
<stop offset="0.2981" stop-color="#AFAFAF"/>
<stop offset="0.4159" stop-color="#D9D9D9"/>
<stop offset="0.5074" stop-color="white"/>
<stop offset="0.5508" stop-color="#DEDEDE" stop-opacity="0.956"/>
<stop offset="0.6452" stop-color="#9D9D9D" stop-opacity="0.8602"/>
<stop offset="0.735" stop-color="#666666" stop-opacity="0.769"/>
<stop offset="0.8179" stop-color="#3C3C3C" stop-opacity="0.6849"/>
<stop offset="0.8922" stop-color="#1D1D1D" stop-opacity="0.6094"/>
<stop offset="0.9554" stop-color="#0B0B0B" stop-opacity="0.5452"/>
<stop offset="1" stop-opacity="0.6"/>
</linearGradient>
<linearGradient id="paint6_linear_110_119" x1="223.234" y1="26.8157" x2="228.261" y2="24.1951" gradientUnits="userSpaceOnUse">
<stop stop-color="white" stop-opacity="0.9"/>
<stop offset="0.0618812" stop-color="#CCE0F4"/>
<stop offset="0.1366" stop-color="#C3DAF0" stop-opacity="0.8997"/>
<stop offset="0.2609" stop-color="#A9C9E4" stop-opacity="0.7329"/>
<stop offset="0.4194" stop-color="#80AED1" stop-opacity="0.5201"/>
<stop offset="0.6061" stop-color="#4689B7" stop-opacity="0.2696"/>
</linearGradient>
</defs>
</svg>
